<svg width="306" height="133" viewBox="0 0 306 133" fill="none" xmlns="http://www.w3.org/2000/svg">
<path d="M113.458 21.8869C114.083 22.1264 114.51 22.5119 114.749 23.0535C114.999 23.5952 115.005 24.1733 114.77 24.7827C114.38 25.6994 113.864 26.5535 113.228 27.3452C111.963 28.9702 110.525 30.5014 108.916 31.9285C100.791 39.3452 91.7337 45.4494 81.7493 50.241C81.291 50.4494 80.8378 50.6733 80.3951 50.9077C79.7285 51.2567 79.041 51.5952 78.3326 51.9285C78.1347 52.0275 77.942 52.0275 77.7493 51.9285C77.567 51.8348 77.4368 51.6733 77.3535 51.4494C77.3378 51.3556 77.3535 51.2306 77.3951 51.0744C77.4472 50.9077 77.5306 50.7931 77.6451 50.7202C78.4785 50.2098 79.3431 49.715 80.2493 49.241C90.192 44.0639 99.2597 37.616 107.458 29.9077C108.442 28.8973 109.385 27.866 110.291 26.8244C110.4 26.6577 110.541 26.5119 110.708 26.3869C111.166 25.8608 111.458 25.2358 111.583 24.5119C111.65 24.1108 111.478 23.7931 111.062 23.5535C110.614 23.3608 110.13 23.2827 109.603 23.3244C109.505 23.34 109.4 23.34 109.291 23.3244C107.234 23.3244 105.197 23.491 103.187 23.8244C101.171 24.1473 99.1764 24.5483 97.2076 25.0327C92.7181 26.215 88.291 27.5692 83.916 29.0952C79.541 30.6108 75.1868 32.1994 70.8535 33.866C57.9889 38.84 45.4889 44.5275 33.3535 50.9285C29.0045 53.2098 24.7181 55.5744 20.4993 58.0327C16.291 60.4806 12.166 63.09 8.1243 65.866C7.02534 66.6577 5.9368 67.4389 4.85347 68.1994C4.27013 68.6317 3.66597 69.0744 3.04097 69.5327C2.93159 69.59 2.85347 69.6577 2.8118 69.741C2.41076 70.0483 1.97326 70.3035 1.4993 70.5119C1.29097 70.6525 1.0618 70.7358 0.811801 70.7619C0.551385 70.7775 0.332634 70.6942 0.165968 70.5119C-0.0111164 70.2775 -0.0475737 70.0483 0.0618009 69.8244C0.16076 69.59 0.311801 69.3817 0.520134 69.1994C0.53576 69.1733 0.582634 69.1369 0.665968 69.0952C1.66597 68.2619 2.71805 67.4389 3.8118 66.616C7.3118 64.0744 10.9003 61.6733 14.5826 59.4077C18.2597 57.1317 21.9993 54.9598 25.791 52.8869C41.1243 44.4442 56.9628 37.1473 73.3118 30.991C77.2389 29.5223 81.1868 28.116 85.1451 26.7827C89.1139 25.4389 93.1451 24.2619 97.2285 23.2619C98.4056 23.0014 99.5931 22.741 100.791 22.491C101.333 22.3556 101.885 22.2202 102.458 22.0952C105.01 21.6785 107.588 21.4494 110.187 21.4077C111.296 21.3556 112.385 21.5119 113.458 21.8869ZM58.2285 79.4702C58.4785 79.4858 58.7181 79.5327 58.9576 79.616C59.192 79.6994 59.3639 79.8035 59.4785 79.9285C59.5878 80.0431 59.6139 80.1577 59.5618 80.2827C59.4368 80.5327 59.2701 80.6942 59.0618 80.7619C58.8535 80.8192 58.6451 80.866 58.4368 80.9077C58.3951 80.9077 58.3535 80.9181 58.3118 80.9285C54.6972 81.5119 51.0826 82.2775 47.4576 83.2202C45.5514 83.6942 43.6295 84.1473 41.6868 84.5744C41.0201 84.7306 40.6347 85.1473 40.541 85.8244C40.416 86.366 40.2701 86.9077 40.1035 87.4494C40.0201 87.7567 39.9472 88.0744 39.8951 88.4077C39.5878 89.5744 39.3118 90.715 39.0618 91.8244C36.7962 101.533 34.3743 111.189 31.791 120.804C31.041 123.481 30.2128 126.126 29.3118 128.741C29.3118 128.783 29.3014 128.814 29.291 128.845C28.9993 129.689 28.6035 130.517 28.1035 131.324C27.6712 132.059 26.9993 132.408 26.0826 132.366C25.817 132.324 25.5878 132.225 25.3951 132.074C25.1972 131.934 25.0826 131.741 25.041 131.491C24.9993 130.876 25.0097 130.283 25.0826 129.699C25.1347 129.267 25.1972 128.814 25.2701 128.345C25.5878 126.038 25.9472 123.72 26.3535 121.387C28.1712 111.106 30.5722 100.97 33.5618 90.9702C33.8378 90.0119 34.192 89.0639 34.6243 88.116C34.7337 87.8973 34.916 87.7514 35.166 87.6785C35.416 87.5952 35.666 87.5692 35.916 87.5952C36.3326 87.6525 36.5253 87.9494 36.4993 88.491C36.4681 89.0223 36.3535 89.6369 36.1451 90.3452C35.9368 91.0535 35.7181 91.6942 35.4993 92.2619C35.3326 92.7202 35.2181 93.0535 35.166 93.2619C32.1243 104.027 30.4681 110.283 30.2076 112.033C30.0931 112.642 30.0514 113.043 30.0826 113.241C30.1243 113.449 30.2076 113.522 30.3326 113.47C30.4681 113.429 30.6087 113.309 30.7493 113.116C30.8847 112.934 31.0201 112.746 31.1451 112.554C31.2701 112.356 31.3535 112.231 31.3951 112.179C31.5201 111.621 31.6347 111.059 31.7493 110.491C32.2493 108.616 32.7285 106.751 33.1868 104.908C33.3222 104.356 33.4628 103.814 33.6035 103.283C34.5722 99.2567 35.541 95.2358 36.4993 91.2202C36.541 91.0692 36.5931 90.84 36.666 90.5327C36.8743 89.9494 37.0722 89.2723 37.2701 88.491C37.4628 87.715 37.5462 87.0327 37.5201 86.4494C37.5045 85.8556 37.3118 85.5744 36.9368 85.616C36.1712 85.741 35.3847 85.866 34.5826 85.991C34.0826 86.0744 33.5722 86.1577 33.0618 86.241C32.6295 86.3139 32.1764 86.3817 31.7076 86.4494C30.2076 86.6994 28.6972 86.9285 27.1868 87.1369C26.7806 87.1681 26.4003 87.1264 26.041 87.0119C25.9993 86.9858 25.9628 86.9285 25.9368 86.8452C25.9056 86.7619 25.8587 86.6681 25.791 86.5535C25.791 86.5275 25.791 86.5014 25.791 86.4702C25.7753 86.4285 25.7806 86.3973 25.8118 86.366C25.8535 86.3244 25.8847 86.2827 25.916 86.241C26.0826 86.0639 26.2597 85.9442 26.4576 85.8869C26.666 85.8192 26.8795 85.7723 27.1035 85.741C27.1556 85.7306 27.2181 85.715 27.291 85.6994C28.1243 85.5327 28.9628 85.3608 29.8118 85.1785C31.9889 84.6942 34.1764 84.2619 36.3743 83.8869C37.1347 83.7619 37.6972 83.5067 38.0618 83.116C38.4212 82.715 38.666 82.1525 38.791 81.4285C39.4264 78.4442 40.0826 75.4598 40.7493 72.4702C41.442 69.2775 42.1295 66.09 42.8118 62.9077C43.3118 60.4806 43.7701 58.0431 44.1868 55.5952C44.4056 54.3035 44.6503 52.991 44.916 51.6577C44.9003 51.616 44.9056 51.5848 44.9368 51.5535C45.0045 50.9858 45.1451 50.4494 45.3535 49.9494C45.4889 49.6994 45.6764 49.5483 45.916 49.491C46.1503 49.4389 46.4003 49.4233 46.666 49.4494C46.8847 49.5223 47.0722 49.6264 47.2285 49.7619C47.3795 49.8869 47.4472 50.0535 47.4368 50.2619C47.4628 51.0431 47.4368 51.8348 47.3535 52.6369C46.8222 56.5119 46.1451 60.3556 45.3118 64.1577C45.2545 64.2567 45.2128 64.3608 45.1868 64.4702C44.4628 68.0431 43.692 71.5952 42.8743 75.1369C42.4993 76.7619 42.1243 78.3817 41.7493 79.991C41.7597 80.0327 41.7701 80.0535 41.7701 80.0535C41.6712 80.5275 41.5722 81.0223 41.4785 81.5327C41.3795 81.991 41.4212 82.3139 41.6035 82.491C41.7962 82.6577 42.1503 82.6942 42.666 82.5952C43.3326 82.5014 44.0045 82.3556 44.6868 82.1577C44.9785 82.1056 45.2806 82.0483 45.6035 81.991C45.6556 81.991 45.6972 81.9702 45.7285 81.9285C49.6035 81.1681 53.4628 80.4025 57.3118 79.6369C57.6139 79.5431 57.9212 79.4858 58.2285 79.4702Z" fill="white"/>
<path d="M78.0225 82.2897C78.4235 82.4303 78.5277 82.9251 78.335 83.7689C78.0016 84.4355 77.6162 85.0709 77.1891 85.6647C76.7568 86.248 76.262 86.8001 75.7099 87.3105C75.6683 87.3105 75.6527 87.3261 75.6683 87.3522C75.3193 87.6855 74.9287 87.9928 74.5016 88.2689C71.0433 90.2011 69.0433 89.7272 68.5016 86.8522C67.21 88.3939 66.335 89.3522 65.8766 89.7272C64.7777 90.6439 63.5068 91.1751 62.0641 91.3105C61.012 91.4511 60.2464 91.2636 59.7725 90.748C59.3037 90.222 59.2047 89.4251 59.4808 88.3522C59.9131 86.6855 60.6631 85.1439 61.7308 83.7272C62.9704 82.1334 64.4183 80.7793 66.085 79.6647C66.96 79.0293 67.9235 78.6803 68.9808 78.623C70.0485 78.5136 70.7777 78.998 71.1683 80.0814C71.3037 80.4147 71.2724 80.7376 71.0641 81.0397C70.7724 81.4043 70.387 81.5397 69.9183 81.4564C69.887 81.4564 69.8402 81.4564 69.7725 81.4564C69.7152 81.4459 69.6683 81.4251 69.6266 81.3939C69.0954 80.8418 68.611 80.6543 68.1683 80.8314C67.7204 81.0136 67.2725 81.3053 66.8141 81.7064C64.6579 83.472 63.2152 85.6855 62.4808 88.3522C62.4287 88.4772 62.4079 88.6126 62.4183 88.748C62.4183 88.873 62.4756 88.972 62.585 89.0397C62.8662 89.0814 63.1579 89.0136 63.4808 88.8314C63.7985 88.6386 64.1058 88.3886 64.3975 88.0814C64.6995 87.7636 64.96 87.5084 65.1683 87.3105C65.1943 87.2584 65.21 87.2272 65.21 87.2272C66.1787 86.1022 67.1266 84.9564 68.0433 83.7897C68.4287 83.2064 68.986 82.8261 69.71 82.6439C70.7204 82.4772 71.2099 82.8626 71.1683 83.7897C71.137 84.1543 71.0954 84.5136 71.0433 84.873C70.8766 86.4043 71.0016 87.2636 71.4183 87.4564C71.8349 87.6543 72.3974 87.5605 73.1058 87.1855C73.8245 86.8001 74.512 86.1855 75.1683 85.3522C75.8193 84.5084 76.361 83.748 76.7933 83.0814C77.2204 82.4043 77.6318 82.1386 78.0225 82.2897Z" fill="white"/>
<path d="M95.5271 80.4651C95.2771 80.7724 95.0167 81.038 94.7563 81.2568C93.8657 82.0485 93.0532 82.6891 92.3188 83.1735C91.5792 83.663 90.699 84.1735 89.673 84.7151C88.1573 85.4547 87.1157 85.5172 86.548 84.9026C85.9751 84.2932 85.7407 83.3401 85.8396 82.0485C85.9907 80.2047 86.0323 78.8714 85.9646 78.0485C85.9073 77.2151 85.5948 76.9807 85.0271 77.3401C84.4542 77.7047 83.4855 78.7255 82.1105 80.4026C80.1938 82.6943 78.6417 85.2151 77.4646 87.9651C77.298 88.3297 77.1001 88.6422 76.8605 88.9026C76.6105 89.1682 76.2667 89.3349 75.8188 89.4026C75.4178 89.4755 75.1053 89.4182 74.8813 89.236C74.6469 89.0432 74.5844 88.7464 74.6938 88.3401C75.2771 86.2047 75.8917 84.0693 76.5271 81.9443C77.6105 78.236 78.6626 74.5641 79.6938 70.9234C80.4698 68.1891 81.2355 65.4599 81.9855 62.7359C82.4438 61.1109 82.8865 59.4964 83.3188 57.8818C83.3605 57.7568 83.4073 57.6214 83.4646 57.4651C83.4907 57.288 83.5323 57.1057 83.5896 56.9234C83.6573 56.7464 83.7355 56.5484 83.8188 56.3401C83.8709 56.1474 84.0167 55.9755 84.2563 55.8193C84.4907 55.6682 84.7355 55.5589 84.9855 55.4859C85.2459 55.4182 85.4542 55.3974 85.6105 55.4234C85.8188 55.5484 85.949 55.6891 86.0063 55.8401C86.0584 55.9807 86.0584 56.1422 86.0063 56.3193C85.9751 56.3609 85.9698 56.413 85.9855 56.4651C85.8188 57.4547 85.6365 58.3974 85.4438 59.2984C84.2459 64.3297 82.8605 69.3193 81.2771 74.2776C81.1626 74.611 81.0323 75.0172 80.8813 75.486C80.6313 76.1682 80.4073 76.8349 80.2146 77.486C80.0167 78.1266 79.9855 78.538 80.1105 78.7151C80.2459 78.8818 80.6834 78.6526 81.423 78.0276C81.6313 77.8089 81.824 77.5901 82.0063 77.3818C82.5896 76.8401 83.1573 76.3297 83.7146 75.8401C84.2146 75.3818 84.8032 75.0849 85.4855 74.9443C87.0792 74.5693 88.1105 75.163 88.5688 76.7151C88.7459 77.3297 88.824 77.9547 88.798 78.5901C88.7823 79.2307 88.7355 79.861 88.6521 80.486C88.6521 80.6526 88.6521 80.8297 88.6521 81.0068C88.5532 82.1057 88.7251 82.7047 89.173 82.7985C89.6313 82.8818 90.2042 82.6943 90.9021 82.236C91.6105 81.7776 92.324 81.2672 93.048 80.6943C93.5323 80.3089 93.9646 79.986 94.3396 79.736C94.7146 79.4755 95.0063 79.3349 95.2146 79.3193C95.6001 79.3193 95.798 79.4443 95.798 79.6943C95.798 79.9443 95.7042 80.2047 95.5271 80.4651Z" fill="white"/>
<path d="M118.449 75.8895C118.918 75.4885 119.324 75.3426 119.658 75.452C120.002 75.5666 119.97 76.0666 119.554 76.952C119.012 77.9676 117.949 79.1343 116.366 80.452C114.793 81.7749 113.33 82.4833 111.97 82.577C110.606 82.6603 110.054 81.7333 110.304 79.7853C110.564 77.827 110.705 76.7385 110.72 76.5145C110.731 76.2801 110.668 76.1603 110.533 76.1603C110.392 76.1499 110.106 76.3478 109.679 76.7645C108.455 77.9468 107.267 79.176 106.116 80.452C105.601 80.952 105.106 81.4937 104.637 82.077C104.345 82.4416 104.043 82.801 103.741 83.1603C103.741 83.1603 103.726 83.1812 103.699 83.2228C103.366 83.6812 102.908 84.0353 102.324 84.2853C102.085 84.3999 101.814 84.4676 101.512 84.4937C101.22 84.5249 100.949 84.4468 100.699 84.2645C100.449 84.0718 100.33 83.8478 100.345 83.5978C100.371 83.3374 100.502 82.926 100.741 82.3687C100.991 81.801 101.252 81.1812 101.533 80.5145C101.824 79.8374 101.981 79.426 102.012 79.2853C102.038 79.1343 101.996 78.9937 101.887 78.8687C101.746 78.7437 101.616 78.7176 101.491 78.7853C101.377 78.8583 100.939 79.2645 100.179 80.0145C99.4286 80.7645 98.413 81.8062 97.137 83.1395C96.538 83.7645 95.9703 84.4051 95.4286 85.0562C95.2776 85.2541 95.1109 85.4312 94.9286 85.5978C94.5276 86.0718 94.0328 86.3687 93.4495 86.4937C93.0641 86.5926 92.7411 86.551 92.4911 86.3687C92.2411 86.1916 92.1682 85.8999 92.262 85.4937C92.3036 85.202 92.3766 84.9416 92.4703 84.702C92.5432 84.577 92.5745 84.4624 92.5745 84.3478C93.3974 81.6812 94.1995 79.0041 94.9911 76.3062C95.0068 76.2541 95.0224 76.1708 95.0328 76.0562C95.1474 75.7801 95.2516 75.5041 95.3453 75.2228C95.6526 74.7645 96.0693 74.5666 96.5953 74.6187C97.2047 74.6916 97.4807 74.9937 97.4286 75.5353C97.2724 76.3583 97.1266 77.1603 96.9911 77.952C96.9078 78.3166 96.8245 78.676 96.7411 79.0353C96.6161 79.676 96.6005 80.077 96.6995 80.2437C96.8089 80.3999 97.1786 80.2176 97.8036 79.702C98.2047 79.301 98.6057 78.9208 99.012 78.5562C99.4807 78.0978 99.9547 77.6708 100.429 77.2645C101.121 76.6708 101.851 76.1291 102.616 75.6395C102.991 75.4208 103.377 75.2333 103.783 75.077C104.199 74.926 104.616 74.952 105.033 75.1603C105.351 75.3583 105.512 75.6083 105.512 75.9103C105.522 76.202 105.491 76.4937 105.408 76.7853C105.283 77.327 105.246 77.6603 105.304 77.7853C105.356 77.9103 105.481 77.9208 105.679 77.8062C105.871 77.6812 106.199 77.426 106.658 77.0353C107.116 76.6499 107.606 76.2228 108.137 75.7645C108.788 75.1708 109.491 74.577 110.241 73.9937C110.851 73.452 111.533 73.0718 112.283 72.8478C113.335 72.5978 113.845 72.9624 113.804 73.9312C113.762 74.8895 113.564 76.0666 113.22 77.452C112.871 78.827 112.939 79.6291 113.429 79.8478C113.929 80.0562 114.835 79.4937 116.158 78.1603C117.491 76.827 118.252 76.0718 118.449 75.8895Z" fill="white"/>
<path d="M128.196 76.2056C127.54 77.3202 126.717 78.3723 125.717 79.3723C124.728 80.3723 123.551 81.1327 122.176 81.6431C120.811 82.1587 119.707 82.2368 118.842 81.8723C117.967 81.5129 117.634 80.4452 117.842 78.6639C118.165 76.8045 118.738 74.992 119.571 73.2264C119.769 72.841 120.082 72.5389 120.509 72.3306C120.827 72.2056 121.134 72.2212 121.426 72.3723C121.717 72.5285 121.853 72.7577 121.842 73.0598C121.702 73.6587 121.535 74.2577 121.342 74.8514C121.16 75.4504 121.04 75.841 120.988 76.0181C120.587 77.1014 120.374 78.2004 120.342 79.3098C120.441 79.9243 121.264 79.8254 122.821 79.0181C124.374 78.216 125.821 76.966 127.155 75.2681C128.488 73.5754 129.16 73.0337 129.176 73.6431C129.186 74.242 128.863 75.0962 128.196 76.2056ZM122.946 69.1223C122.863 69.2056 122.702 69.3098 122.467 69.4348C122.243 69.5493 121.999 69.6535 121.738 69.7473C121.488 69.8306 121.269 69.8254 121.092 69.7264C120.926 69.617 120.884 69.367 120.967 68.9764C121.118 68.2993 121.285 67.6952 121.467 67.1639C121.644 66.6223 121.91 66.0181 122.259 65.3514C122.493 65.0598 122.769 64.8827 123.092 64.8098C123.41 64.742 123.696 64.7837 123.946 64.9348C124.196 65.0754 124.301 65.3202 124.259 65.6639C124.103 66.9556 123.665 68.1118 122.946 69.1223Z" fill="white"/>
<path d="M146.074 71.4694C146.376 71.735 146.162 72.3444 145.428 73.3027C144.704 74.2507 143.896 75.084 143.011 75.8027C142.136 76.5111 141.1 77.2559 139.907 78.0319C139.126 78.5475 138.251 78.8184 137.282 78.8444C136.308 78.8757 135.73 78.3757 135.553 77.3444C135.386 76.3027 135.454 75.2402 135.761 74.1569C136.063 73.0215 136.079 72.4642 135.803 72.4902C135.537 72.5059 135.021 72.8444 134.261 73.5111C132.287 75.3184 130.511 77.3027 128.928 79.4694C128.511 80.1673 127.917 80.6152 127.136 80.8236C126.735 80.8809 126.402 80.8027 126.136 80.5944C125.876 80.3757 125.803 80.1048 125.928 79.7819C126.876 77.0632 127.839 74.3548 128.824 71.6569C129.063 71.1048 129.48 70.7142 130.074 70.4902C130.324 70.4069 130.574 70.4486 130.824 70.6152C131.084 70.7819 131.24 71.0007 131.282 71.2611C131.292 71.5267 131.245 71.8392 131.136 72.1986C131.079 72.4069 131.032 72.61 130.99 72.8027C130.959 73.0007 130.969 73.1569 131.011 73.2819C131.053 73.4069 131.157 73.4382 131.324 73.3652C131.532 73.1986 131.73 73.0267 131.928 72.8444C132.469 72.4017 132.98 71.9798 133.469 71.5736C133.896 71.2402 134.355 70.9225 134.844 70.6152C135.344 70.3132 135.87 70.0736 136.428 69.9069C137.344 69.6986 138.032 69.8027 138.49 70.2194C138.959 70.6257 139.12 71.2767 138.969 72.1777C138.771 73.0007 138.574 73.8184 138.365 74.6361C138.058 75.4017 138.074 75.9486 138.407 76.2819C138.74 76.6048 139.954 75.9642 142.053 74.3652L143.636 73.0944C145.105 71.7767 145.917 71.235 146.074 71.4694Z" fill="white"/>
<path d="M246.896 5.1662C249.062 9.14016 249.416 13.4058 247.958 17.9579C247.833 18.3902 247.651 18.7912 247.416 19.1662C247.177 19.5308 246.823 19.8068 246.354 19.9995C246.005 20.1245 245.687 20.0985 245.396 19.9162C245.104 19.7235 244.963 19.4735 244.979 19.1662C245.088 18.5568 245.208 17.9683 245.333 17.3954C245.375 17.0933 245.448 16.7912 245.562 16.4995C246.13 13.4318 245.843 10.5204 244.708 7.77037C243.442 4.64537 241.146 2.83287 237.812 2.33287C235.88 2.05683 233.979 2.05162 232.104 2.31204C230.229 2.57766 228.354 3.03079 226.479 3.6662C220.797 5.70787 215.338 8.36412 210.104 11.6245C202.047 16.5152 194.541 22.2027 187.583 28.687C181.625 34.26 176.448 40.5152 172.062 47.4579C170.531 49.8641 169.208 52.3693 168.083 54.9787C166.958 57.5933 166.151 60.3068 165.666 63.1245C165.218 65.9475 165.234 68.7079 165.708 71.4162C166.291 74.3329 167.427 76.7183 169.125 78.562C170.833 80.3954 172.927 81.5933 175.416 82.1662C177.901 82.7495 180.562 82.562 183.396 81.6037C187.031 80.3693 190.354 78.4579 193.354 75.8745C195.13 74.4058 196.755 72.8016 198.229 71.062C199.713 69.3277 201.114 67.51 202.437 65.6037C205.614 60.9787 208.343 56.0985 210.625 50.9579C211.927 47.9475 212.916 44.812 213.583 41.562C213.625 41.4527 213.651 41.3225 213.666 41.1662C213.817 40.4162 214.01 39.6766 214.25 38.937C214.635 37.911 215.416 37.3641 216.583 37.2912C217.302 37.2652 217.771 37.6141 217.979 38.3329C218.156 39.4162 218.114 40.5204 217.854 41.6454C216.479 49.4266 214.859 57.161 213 64.8537C212.968 65.036 212.937 65.2183 212.896 65.3954C212.771 65.76 212.672 66.1193 212.604 66.4787C212.573 66.5933 212.562 66.7027 212.562 66.812C212.437 67.2287 212.396 67.6766 212.437 68.1454C212.463 68.312 212.541 68.4266 212.666 68.4787C212.802 68.536 212.963 68.5829 213.146 68.6245C213.38 68.6662 213.567 68.7443 213.708 68.8537C213.76 68.8433 213.802 68.8537 213.833 68.8954C213.942 68.9787 214.041 69.062 214.125 69.1454C214.208 69.2287 214.192 69.3745 214.083 69.5829C214.01 69.7652 213.896 69.9162 213.729 70.0412C213.521 70.1975 213.302 70.286 213.083 70.312C212.416 70.3433 211.922 70.5725 211.604 70.9995C211.281 71.4162 211.052 71.9162 210.916 72.4995C210.302 74.5725 209.677 76.6402 209.041 78.7079C207.718 83.0256 206.146 87.2808 204.312 91.4787C203.187 94.1037 201.843 96.6245 200.291 99.0412C198.692 101.593 196.651 103.713 194.166 105.395C192.802 106.312 191.375 106.937 189.875 107.27C188.135 107.687 186.635 107.5 185.375 106.708C184.125 105.927 183.281 104.666 182.854 102.916C182.505 101.458 182.458 99.9266 182.708 98.3329C183.302 95.2756 184.448 92.4475 186.146 89.8537C190.437 82.9787 195.989 77.4735 202.812 73.3329C203.948 72.6662 205.093 72.0516 206.25 71.4787C206.375 71.3693 206.521 71.286 206.687 71.2287C207.562 70.8277 208.135 70.1662 208.416 69.2495C208.635 68.2912 208.875 67.3485 209.125 66.4162C209.875 63.8745 210.442 61.312 210.833 58.7287C210.843 58.6454 210.833 58.5777 210.791 58.5204C210.734 58.4943 210.708 58.4683 210.708 58.437C210.343 58.562 210.073 58.7652 209.896 59.0412C209.729 59.3068 209.552 59.5933 209.375 59.8954C209.302 60.0777 209.213 60.26 209.104 60.437C207.021 64.01 204.692 67.4058 202.125 70.6245C198.984 74.5568 195.323 77.7912 191.146 80.3329C188.771 81.76 186.312 82.8537 183.771 83.6037C181.239 84.3537 178.646 84.6766 175.979 84.5829C172.906 84.4683 170.172 83.4475 167.771 81.5204C165.38 79.5933 163.703 76.9475 162.729 73.5829C162.146 71.4891 161.885 69.3693 161.937 67.2287C161.979 65.0777 162.281 62.9058 162.833 60.7079C163.489 58.2652 164.333 55.9162 165.375 53.6662C166.416 51.4058 167.609 49.187 168.958 47.0204C173.75 39.4266 179.484 32.635 186.166 26.6454C190.942 22.3016 195.927 18.3225 201.125 14.7079C206.333 11.0829 211.802 7.89016 217.541 5.12454C220.041 3.89016 222.609 2.84329 225.25 1.9787C227.901 1.1037 230.593 0.499536 233.333 0.166203C236.192 -0.193172 238.963 0.0307857 241.646 0.83287C243.979 1.57245 245.729 3.01516 246.896 5.1662ZM206.875 74.2079C206.885 73.9579 206.812 73.7652 206.646 73.6245C206.489 73.4891 206.302 73.4787 206.083 73.6037C205.567 73.8693 205.067 74.1402 204.583 74.4162C198.791 78.1662 193.922 82.9266 189.979 88.7079C188.547 90.7756 187.396 92.9995 186.521 95.3745C185.854 97.0412 185.583 98.9214 185.708 101.02C185.718 101.046 185.734 101.114 185.75 101.229C185.76 101.52 185.817 101.875 185.916 102.291C186.359 103.833 187.067 104.791 188.041 105.166C189.026 105.552 190.218 105.322 191.625 104.479C193.609 103.114 195.276 101.416 196.625 99.3745C198.317 96.885 199.739 94.2756 200.896 91.5412C202.062 88.9006 203.109 86.2079 204.041 83.4579C204.984 80.7183 205.854 77.9579 206.646 75.1662C206.729 74.8329 206.802 74.5308 206.875 74.2495C206.875 74.2235 206.875 74.2079 206.875 74.2079Z" fill="white"/>
<path d="M223.501 66.5642C222.032 66.8038 221.168 66.1475 220.918 64.6058C220.615 62.7465 221.293 59.2517 222.959 54.1267C223.032 53.9079 223.183 53.7725 223.418 53.7308C224.386 53.5798 224.938 53.8975 225.063 54.6892C225.105 54.9548 225.074 55.3038 224.98 55.7308C224.938 55.8558 224.449 58.0225 223.522 62.2308C223.386 62.9288 223.345 63.4288 223.397 63.7308C223.454 64.0798 223.636 64.2256 223.959 64.1683C225.084 63.9913 227.574 60.7048 231.438 54.3142C231.923 53.4704 232.464 52.9965 233.063 52.8975C233.949 52.7621 234.449 53.0121 234.563 53.6475C234.605 53.8975 234.485 54.8871 234.209 56.6058C233.819 58.9288 233.652 60.2517 233.709 60.585C233.793 61.1006 234.001 61.3298 234.334 61.2725C235.194 61.1371 237.428 59.2256 241.043 55.5433C241.251 55.2933 241.428 55.1579 241.584 55.1267C241.97 55.0746 242.214 55.3662 242.313 56.0017C242.339 56.184 242.313 56.335 242.23 56.46C240.355 58.6683 238.735 60.3871 237.376 61.6058C236.126 62.7204 234.959 63.3662 233.876 63.5433L233.563 63.585C231.923 63.5173 230.928 62.4131 230.584 60.2725C229.126 62.0381 227.907 63.4756 226.938 64.585C225.964 65.684 224.819 66.3454 223.501 66.5642Z" fill="white"/>
<path d="M252.017 54.788C252.434 54.1943 252.809 53.8401 253.142 53.7255C253.476 53.6162 253.705 53.637 253.83 53.788C253.965 53.9287 253.939 54.163 253.746 54.4964C252.647 56.361 251.356 58.0172 249.871 59.4755C248.382 60.9339 246.767 61.9078 245.017 62.3922C243.267 62.8662 242.033 62.0693 241.309 59.9964C240.684 57.9287 241.267 53.413 243.059 46.4547C244.851 39.4964 246.226 33.8193 247.184 29.413C247.267 29.012 247.423 28.6526 247.663 28.3297C247.965 27.9026 248.392 27.7464 248.934 27.8714C249.127 27.9287 249.319 28.0276 249.517 28.163C249.71 28.288 249.814 28.5797 249.83 29.038C245.34 47.5276 243.335 57.5068 243.809 58.9755C244.278 60.4495 245.314 60.663 246.913 59.6214C248.507 58.5693 249.71 57.5693 250.517 56.6214C251.319 55.6787 251.819 55.0693 252.017 54.788Z" fill="white"/>
<path d="M261.728 54.5171C261.071 55.6317 260.249 56.6838 259.249 57.6838C258.259 58.6838 257.082 59.4442 255.707 59.9546C254.342 60.4702 253.238 60.5484 252.374 60.1838C251.499 59.8244 251.165 58.7567 251.374 56.9754C251.696 55.1161 252.269 53.3036 253.103 51.5379C253.301 51.1525 253.613 50.8504 254.04 50.6421C254.358 50.5171 254.665 50.5327 254.957 50.6838C255.249 50.84 255.384 51.0692 255.374 51.3713C255.233 51.9702 255.066 52.5692 254.874 53.1629C254.691 53.7619 254.571 54.1525 254.519 54.3296C254.118 55.4129 253.905 56.5119 253.874 57.6213C253.973 58.2359 254.795 58.1369 256.353 57.3296C257.905 56.5275 259.353 55.2775 260.686 53.5796C262.019 51.8869 262.691 51.3452 262.707 51.9546C262.717 52.5536 262.394 53.4077 261.728 54.5171ZM256.478 47.4338C256.394 47.5171 256.233 47.6213 255.999 47.7463C255.775 47.8609 255.53 47.965 255.269 48.0588C255.019 48.1421 254.801 48.1369 254.624 48.0379C254.457 47.9286 254.415 47.6786 254.499 47.2879C254.65 46.6109 254.816 46.0067 254.999 45.4754C255.176 44.9338 255.441 44.3296 255.79 43.6629C256.025 43.3713 256.301 43.1942 256.624 43.1213C256.941 43.0536 257.228 43.0952 257.478 43.2463C257.728 43.3869 257.832 43.6317 257.79 43.9754C257.634 45.2671 257.196 46.4234 256.478 47.4338Z" fill="white"/>
<path d="M279.375 49.3018C279.636 49.6508 279.401 50.3018 278.667 51.2602C277.927 52.2081 276.568 53.4372 274.584 54.9477C273.834 55.406 273.292 55.7706 272.959 56.031C272.625 56.2966 272.396 56.5935 272.271 56.9268C272.146 57.2602 272.026 57.7758 271.917 58.4685C271.834 58.9685 271.714 59.6456 271.563 60.4893C271.365 61.5466 271.167 62.63 270.959 63.7393C270.625 65.9893 270.157 68.2289 269.563 70.4685C268.979 72.7185 268.068 74.7393 266.834 76.531C265.61 78.3227 263.881 79.6612 261.646 80.5518C259.37 81.3852 257.115 81.8227 254.875 81.8643C252.625 81.906 250.375 81.6456 248.125 81.0935C247.224 80.8435 246.375 80.4529 245.584 79.9268C244.282 78.9529 243.99 77.6768 244.709 76.0935C245.115 75.3018 245.599 74.5622 246.167 73.8852C247.349 72.5622 248.604 71.3331 249.938 70.1977C252.438 68.057 255.016 66.0622 257.667 64.2185C260.323 62.3747 263.016 60.5622 265.75 58.781C265.943 58.6456 266.151 58.4997 266.375 58.3435C267.125 57.8591 267.886 57.3591 268.667 56.8435C269.219 56.5414 269.552 56.0883 269.667 55.4893C269.693 55.2706 269.677 55.0727 269.625 54.906C269.568 54.8122 269.49 54.7602 269.396 54.7602C269.313 54.7602 269.229 54.7966 269.146 54.8643C268.881 55.0883 268.61 55.3383 268.334 55.6143C268.167 55.7289 268 55.8643 267.834 56.031C266.86 56.8227 265.797 57.2758 264.646 57.3852C262.844 57.6768 261.792 57.0258 261.5 55.4268C261.266 54.0935 261.292 52.7966 261.584 51.531C261.875 50.2706 262.386 49.031 263.104 47.8227C263.188 47.6977 263.302 47.5883 263.459 47.4893C263.61 47.3956 263.776 47.3175 263.959 47.2602C263.985 47.2602 264.011 47.2393 264.042 47.1977C264.375 47.1039 264.651 47.1456 264.875 47.3227C265.094 47.505 265.172 47.755 265.104 48.0727C264.979 48.531 264.854 49.005 264.729 49.4893C264.615 49.8643 264.5 50.2341 264.375 50.5935C263.927 52.0414 263.844 53.4789 264.125 54.906C264.193 55.2133 264.36 55.4164 264.625 55.5102C264.901 55.6091 265.188 55.5622 265.479 55.3643C266.323 54.8643 267.032 54.2133 267.604 53.406C269.157 51.4477 270.354 49.2914 271.188 46.9268C271.313 46.5935 271.464 46.3018 271.646 46.0518C271.839 45.7914 272.115 45.6143 272.479 45.531C272.948 45.406 273.334 45.4581 273.625 45.6768C273.917 45.8852 274.047 46.2081 274.021 46.6352C273.813 48.0831 273.573 49.5206 273.313 50.9477C273.297 51.0727 273.282 51.1872 273.271 51.281C273.188 51.63 273.115 51.9789 273.063 52.3227C273.021 52.6716 273.021 52.9789 273.063 53.2393C273.104 53.4893 273.229 53.6039 273.438 53.5727C274.256 53.2706 275.381 52.3956 276.813 50.9477C278.256 49.4893 279.11 48.9425 279.375 49.3018ZM268.75 60.5518C268.735 60.4685 268.75 60.3956 268.792 60.3227C268.86 60.13 268.881 59.9372 268.854 59.7393C268.839 59.531 268.75 59.3331 268.584 59.1352C268.469 59.1664 268.386 59.1768 268.334 59.1768C268.136 59.2758 267.964 59.3643 267.813 59.4477C267.479 59.63 267.151 59.8383 266.834 60.0727C264.334 61.7706 261.834 63.4997 259.334 65.2602C256.834 67.0362 254.407 68.8747 252.042 70.781C250.599 71.9477 249.271 73.2497 248.063 74.6977C247.078 75.906 246.677 76.8904 246.854 77.656C247.021 78.4164 247.808 78.9997 249.209 79.406C252.391 80.4477 255.662 80.5518 259.021 79.7185C261.302 79.1039 263.037 77.9268 264.229 76.1768C265.422 74.4372 266.302 72.4372 266.875 70.1768C267.459 67.9268 267.922 65.6977 268.271 63.4893C268.407 62.4633 268.568 61.4841 268.75 60.5518Z" fill="white"/>
<path d="M291.759 50.5453C291.009 51.5765 290.092 52.4984 289.009 53.3161C287.926 54.1234 286.993 54.6859 286.217 55.0036C285.436 55.3265 284.634 55.5765 283.801 55.7536C282.436 56.0349 281.155 56.0557 279.946 55.8161C277.946 55.3474 277.066 53.9984 277.301 51.7744C277.54 49.8578 278.4 48.2536 279.884 46.9619C281.368 45.6703 282.993 44.8942 284.759 44.6286C284.759 44.6286 284.769 44.6286 284.801 44.6286C285.243 44.5192 285.681 44.4776 286.113 44.5036C286.821 44.6442 287.311 44.9776 287.592 45.5036C287.868 46.0192 287.848 46.6494 287.53 47.3994C286.78 49.0661 285.571 50.1182 283.905 50.5453C282.79 50.8369 281.696 50.9567 280.613 50.8994C280.415 50.9151 280.249 51.0036 280.113 51.1703C279.978 51.3265 279.905 51.514 279.905 51.7328C279.811 53.1078 280.353 53.889 281.551 54.0661C283.019 54.3317 284.467 54.0974 285.884 53.3578C287.519 52.5401 288.993 51.264 290.301 49.5244C291.618 47.7744 292.405 46.9359 292.655 47.0036C292.915 47.0609 293.04 47.3317 293.03 47.8161C292.931 48.6078 292.509 49.5192 291.759 50.5453ZM281.301 48.4203C281.217 48.5453 281.165 48.6807 281.155 48.8161C281.139 48.9567 281.207 49.0609 281.363 49.1286C281.946 49.3526 282.54 49.3734 283.155 49.1911C283.78 48.9984 284.28 48.6703 284.655 48.2119C285.04 47.7432 285.155 47.2328 284.988 46.6911C284.915 46.4828 284.79 46.3682 284.613 46.3369C284.431 46.3109 284.264 46.3317 284.113 46.3994C282.988 46.7901 282.051 47.4619 281.301 48.4203Z" fill="white"/>
<path d="M305.077 37.5042C304.994 37.8688 304.874 38.223 304.723 38.5667C302.858 43.0407 300.619 47.2907 297.994 51.3167C297.645 51.8896 297.249 52.4209 296.806 52.9209C296.39 53.3115 295.921 53.6292 295.41 53.8792C293.937 54.3792 292.952 53.9105 292.452 52.4625C292.233 51.5459 292.088 50.6292 292.015 49.7125C291.947 49.2855 291.879 48.874 291.806 48.4834C291.806 48.4834 291.827 48.4834 291.869 48.4834C291.827 48.2073 291.785 47.9365 291.744 47.6709C291.634 46.9938 291.525 46.3167 291.41 45.65C291.358 45.275 291.306 44.8896 291.265 44.4834C291.306 43.6084 291.66 43.1032 292.327 42.9625C293.067 42.8792 293.556 43.3375 293.806 44.3375C293.848 44.6188 293.858 44.874 293.848 45.1084C293.858 45.3584 293.879 45.5875 293.91 45.7959C294.103 47.2959 294.306 48.8115 294.515 50.3375C294.567 50.6865 294.749 50.8688 295.056 50.8792C295.166 50.8688 295.254 50.8323 295.327 50.775C295.41 50.7073 295.473 50.6292 295.515 50.5459C296.249 49.3532 296.957 48.1605 297.64 46.9625C297.9 46.5042 298.171 46.0459 298.452 45.5875C298.744 45.0459 299.041 44.5355 299.348 44.0459C300.499 41.9625 301.671 39.9 302.869 37.8584C302.994 37.598 303.15 37.3688 303.348 37.1709C303.556 36.9625 303.827 36.8323 304.16 36.775C304.452 36.7646 304.713 36.8271 304.952 36.9625C305.02 37.0198 305.062 37.1032 305.077 37.2125C305.088 37.3115 305.088 37.4105 305.077 37.5042Z" fill="white"/>
</svg>
